<svg xmlns="http://www.w3.org/2000/svg" viewBox="0 0 278.468 41.024"><path fill="none" d="M46.937 1.5h236.134v28.327H46.937z"/><path d="M69.016 24.955l-.32-14.047-7.391 11.199h-.48l-7.456-11.231-.256 14.079h-3.936l.992-23.742.608-.064L61.176 16.7 71.319 1.149l.64.064.992 23.742h-3.935zm24.53 0l-2.271-5.376h-9.279l-2.272 5.376h-4.128L86.411 1.181h.576L97.77 24.955h-4.224zM86.635 8.573l-3.328 7.839h6.656l-3.328-7.839zm26.62 16.382l-5.119-8.447c-.416.032-.8.032-1.248.032-.768 0-1.568-.032-2.336-.064v8.479h-4V1.725a49.853 49.853 0 0 1 6.176-.384c6.656 0 9.599 3.232 9.599 7.392 0 3.04-1.664 5.503-4.576 6.783l6.144 9.439h-4.64zm-6.015-20.03c-.96 0-1.888.032-2.688.192v7.999c.736.096 1.536.128 2.304.128 3.488 0 5.248-1.632 5.248-4.32 0-2.367-1.792-3.999-4.864-3.999zm27.312 20.03l-9.6-11.263v11.263h-4V1.501h4V12.06l9.215-10.559H139l-10.24 11.264 10.751 12.191h-4.959zm7.955 0V1.501h14.303v3.647h-10.303v6.144h9.312v3.52h-9.312v6.496h10.303v3.647h-14.303zm28.74-19.806v19.807h-3.999V5.149h-7.456V1.501h18.879v3.647h-7.424zm16.957 12.255c-.769 0-1.568-.064-2.336-.096v7.647h-4V1.725a48.389 48.389 0 0 1 5.952-.384c6.432 0 9.727 3.52 9.727 7.903-.001 4.768-3.36 8.16-9.343 8.16zm.288-12.383c-.896 0-1.792.064-2.624.192v8.576c.8.064 1.536.128 2.24.128 3.615 0 5.279-1.888 5.279-4.544 0-2.304-1.632-4.352-4.895-4.352zm12.313 19.934V1.501h4v19.807h10.303v3.647h-14.303zm34.06 0l-2.271-5.376h-9.279l-2.272 5.376h-4.127L227.73 1.181h.576l10.783 23.774h-4.224zm-6.911-16.382l-3.328 7.839h6.655l-3.327-7.839zm24.202 16.766c-7.424 0-12.64-5.119-12.64-12.095 0-6.944 5.279-12.127 12.64-12.127 2.911 0 5.567.928 7.551 2.144l-1.376 3.392c-1.855-1.056-4.159-1.792-6.239-1.792-5.151 0-8.287 3.424-8.287 8.384 0 4.928 3.231 8.352 8.383 8.352 2.08 0 4.512-.736 6.399-1.856l1.217 3.392c-1.953 1.246-4.737 2.206-7.648 2.206zm11.1-.384V1.501h14.303v3.647h-10.303v6.144h9.312v3.52h-9.312v6.496h10.303v3.647h-14.303z"/><path fill="none" d="M47.937 30.823h187.217v10.201H47.937z"/><path fill="#999" d="M50.996 38.963c-.682 0-1.485-.066-2.179-.154V30.91a15.48 15.48 0 0 1 2.068-.154c2.124 0 3.168 1.034 3.168 2.112 0 .848-.396 1.464-1.408 1.838 1.177.33 1.628 1.045 1.628 1.937.001 1.198-1.11 2.32-3.277 2.32zm.131-7.019c-.341 0-.682.033-.957.077v2.233c.198.021.473.033.814.033 1.166 0 1.65-.518 1.65-1.188s-.494-1.155-1.507-1.155zm-.121 3.322c-.286 0-.649.012-.836.033v2.421c.275.032.605.055.979.055 1.1 0 1.65-.518 1.65-1.276.001-.694-.604-1.233-1.793-1.233zm7.91.231v3.389h-1.375v-3.399l-2.838-4.665h1.573l1.98 3.41 1.958-3.41h1.541l-2.839 4.675zm9.58-3.421v6.811h-1.375v-6.811h-2.563v-1.254h6.491v1.254h-2.553zm8.862 6.81V35.42H73.65v3.466h-1.375v-8.064h1.375v3.366h3.708v-3.366h1.375v8.064h-1.375zm3.332 0v-8.064h4.918v1.254h-3.542v2.112h3.202v1.211h-3.202v2.232h3.542v1.255H80.69zm12.97.132c-2.552 0-4.346-1.761-4.346-4.158 0-2.388 1.815-4.17 4.346-4.17a5.04 5.04 0 0 1 2.596.737l-.473 1.166c-.638-.363-1.43-.616-2.146-.616-1.771 0-2.85 1.177-2.85 2.883 0 1.693 1.111 2.871 2.883 2.871.715 0 1.551-.253 2.2-.639l.418 1.167a5.03 5.03 0 0 1-2.628.759zm9.024-.132V35.42h-3.708v3.466h-1.375v-8.064h1.375v3.366h3.708v-3.366h1.375v8.064h-1.375zm3.357 0v-8.064h1.375v8.064h-1.375zm7.351.132c-2.553 0-4.346-1.761-4.346-4.158 0-2.388 1.815-4.17 4.346-4.17 1.001 0 1.914.319 2.597.737l-.474 1.166c-.638-.363-1.43-.616-2.145-.616-1.771 0-2.85 1.177-2.85 2.883 0 1.693 1.111 2.871 2.882 2.871.716 0 1.552-.253 2.2-.639l.419 1.167a5.036 5.036 0 0 1-2.629.759zm9.494-.132l-.781-1.849h-3.19l-.781 1.849h-1.419l3.719-8.175h.198l3.707 8.175h-1.453zm-2.376-5.633l-1.145 2.695h2.288l-1.143-2.695zm11.397 1.365v3.521c-.857.561-1.793.88-3.003.88-2.3 0-4.279-1.672-4.279-4.158 0-2.509 2.013-4.17 4.279-4.17 1.188 0 2.035.33 2.86.836l-.627 1.101c-.649-.418-1.419-.672-2.167-.672-1.838 0-2.872 1.299-2.872 2.905 0 1.716 1.266 2.937 2.86 2.937.693 0 1.155-.12 1.629-.385v-1.584h-1.882v-1.21h3.202zm5.4 4.4c-2.332 0-4.037-1.771-4.037-4.158 0-2.398 1.782-4.17 4.114-4.17s4.037 1.771 4.037 4.17c0 2.386-1.782 4.158-4.114 4.158zm.044-7.096c-1.54 0-2.607 1.254-2.607 2.938 0 1.672 1.067 2.937 2.607 2.937 1.529 0 2.597-1.265 2.597-2.937 0-1.684-1.068-2.938-2.597-2.938zm14.631 6.964l-.109-4.83-2.542 3.851h-.165l-2.563-3.861-.088 4.841h-1.353l.341-8.163.209-.022 3.575 5.347 3.487-5.347.221.022.341 8.163h-1.354zm8.549 0l-.781-1.849h-3.19l-.781 1.849h-1.419l3.719-8.175h.198l3.707 8.175h-1.453zm-2.376-5.633l-1.145 2.695h2.288l-1.143-2.695zm9.27 5.633l-1.761-2.904c-.143.011-.274.011-.429.011-.264 0-.539-.011-.803-.022v2.916h-1.375V30.9a17.137 17.137 0 0 1 2.123-.132c2.288 0 3.3 1.111 3.3 2.541 0 1.045-.571 1.893-1.573 2.332l2.112 3.246h-1.594zm-2.068-6.888c-.33 0-.649.012-.924.066v2.75c.253.033.527.045.792.045 1.199 0 1.804-.562 1.804-1.485 0-.814-.615-1.376-1.672-1.376zm8.387 7.02c-2.332 0-4.037-1.771-4.037-4.158 0-2.398 1.782-4.17 4.114-4.17s4.037 1.771 4.037 4.17c0 2.386-1.782 4.158-4.114 4.158zm.044-7.096c-1.54 0-2.607 1.254-2.607 2.938 0 1.672 1.067 2.937 2.607 2.937 1.529 0 2.597-1.265 2.597-2.937-.001-1.684-1.068-2.938-2.597-2.938zm9.368 7.096c-2.332 0-4.037-1.771-4.037-4.158 0-2.398 1.782-4.17 4.114-4.17s4.037 1.771 4.037 4.17c0 2.386-1.782 4.158-4.114 4.158zm.044-7.096c-1.54 0-2.607 1.254-2.607 2.938 0 1.672 1.067 2.937 2.607 2.937 1.529 0 2.597-1.265 2.597-2.937-.001-1.684-1.068-2.938-2.597-2.938zm12.102 7.117l-5.05-5.324v5.171h-1.375v-8.175l.221-.044 4.983 5.248v-5.094h1.375v8.186l-.154.032z"/><g fill="#C1272D"><path d="M24.863.762h-8.43l4.215 4.215zM.992 24.205v7.043l8.625 8.514h7.043z"/><path d="M.992.848l19.569 19.44L39.999.762h-7.161l-12.19 12.191L8.458.762H.992z"/><path d="M20.561 35.478l19.438-19.716h-.007V8.824l-19.5 19.482L.992 8.824v7.405zm4.075 4.284h7.043l8.382-8.483-.069-.031v-7.044z"/></g></svg>