<svg xmlns="http://www.w3.org/2000/svg" viewBox="0 0 278.468 41.024"><path fill="none" d="M46.937 1.5h236.134v28.327H46.937z"/><text transform="translate(46.937 24.956)"><tspan x="0" y="0" font-family="'Verlag-Bold'" font-size="32">M</tspan><tspan x="28.755" y="0" font-family="'Verlag-Bold'" font-size="32">A</tspan><tspan x="51.024" y="0" font-family="'Verlag-Bold'" font-size="32">R</tspan><tspan x="71.456" y="0" font-family="'Verlag-Bold'" font-size="32">K</tspan><tspan x="93.011" y="0" font-family="'Verlag-Bold'" font-size="32">E</tspan><tspan x="112.055" y="0" font-family="'Verlag-Bold'" font-size="32">T</tspan><tspan x="132.371" y="0" font-family="'Verlag-Bold'" font-size="32">P</tspan><tspan x="151.309" y="0" font-family="'Verlag-Bold'" font-size="32" letter-spacing="1">L</tspan><tspan x="170.073" y="0" font-family="'Verlag-Bold'" font-size="32" letter-spacing="-1">A</tspan><tspan x="190.819" y="0" font-family="'Verlag-Bold'" font-size="32">C</tspan><tspan x="213.76" y="0" font-family="'Verlag-Bold'" font-size="32">E</tspan></text><path fill="none" d="M47.937 30.823h187.217v10.201H47.937z"/><text transform="translate(47.937 38.886)"><tspan x="0" y="0" fill="#999" font-family="'Verlag-Bold'" font-size="11">B</tspan><tspan x="6.6" y="0" fill="#999" font-family="'Verlag-Bold'" font-size="11">Y </tspan><tspan x="16.346" y="0" fill="#999" font-family="'Verlag-Bold'" font-size="11">T</tspan><tspan x="23.458" y="0" fill="#999" font-family="'Verlag-Bold'" font-size="11">H</tspan><tspan x="31.873" y="0" fill="#999" font-family="'Verlag-Bold'" font-size="11">E </tspan><tspan x="40.772" y="0" fill="#999" font-family="'Verlag-Bold'" font-size="11">C</tspan><tspan x="48.784" y="0" fill="#999" font-family="'Verlag-Bold'" font-size="11">H</tspan><tspan x="57.169" y="0" fill="#999" font-family="'Verlag-Bold'" font-size="11">I</tspan><tspan x="60.504" y="0" fill="#999" font-family="'Verlag-Bold'" font-size="11">C</tspan><tspan x="68.811" y="0" fill="#999" font-family="'Verlag-Bold'" font-size="11">A</tspan><tspan x="76.082" y="0" fill="#999" font-family="'Verlag-Bold'" font-size="11">G</tspan><tspan x="84.728" y="0" fill="#999" font-family="'Verlag-Bold'" font-size="11">O </tspan><tspan x="96.454" y="0" fill="#999" font-family="'Verlag-Bold'" font-size="11">M</tspan><tspan x="106.455" y="0" fill="#999" font-family="'Verlag-Bold'" font-size="11">A</tspan><tspan x="114.229" y="0" fill="#999" font-family="'Verlag-Bold'" font-size="11">R</tspan><tspan x="121.164" y="0" fill="#999" font-family="'Verlag-Bold'" font-size="11">O</tspan><tspan x="130.576" y="0" fill="#999" font-family="'Verlag-Bold'" font-size="11">O</tspan><tspan x="140.061" y="0" fill="#999" font-family="'Verlag-Bold'" font-size="11">N</tspan></text><g fill="#C1272D"><path d="M24.863.762h-8.43l4.215 4.215zM.992 24.205v7.043l8.625 8.514h7.043z"/><path d="M.992.848l19.569 19.44L39.999.762h-7.161l-12.19 12.191L8.458.762H.992z"/><path d="M20.561 35.478l19.438-19.716h-.007V8.824l-19.5 19.482L.992 8.824v7.405zm4.075 4.284h7.043l8.382-8.483-.069-.031v-7.044z"/></g></svg>