<?xml version="1.0" encoding="utf-8"?>
<!-- Generator: Adobe Illustrator 18.0.0, SVG Export Plug-In . SVG Version: 6.00 Build 0)  -->
<!DOCTYPE svg PUBLIC "-//W3C//DTD SVG 1.1//EN" "http://www.w3.org/Graphics/SVG/1.1/DTD/svg11.dtd">
<svg version="1.1" id="Layer_1" xmlns="http://www.w3.org/2000/svg" xmlns:xlink="http://www.w3.org/1999/xlink" x="0px" y="0px"
	 viewBox="0 0 278.468 41.024" enable-background="new 0 0 278.468 41.024" xml:space="preserve">
<rect x="46.937" y="1.5" fill="none" width="236.134" height="28.327"/>
<text transform="matrix(1 0 0 1 46.9373 24.9556)"><tspan x="0" y="0" font-family="'Verlag-Bold'" font-size="32">M</tspan><tspan x="28.755" y="0" font-family="'Verlag-Bold'" font-size="32">A</tspan><tspan x="51.024" y="0" font-family="'Verlag-Bold'" font-size="32">R</tspan><tspan x="71.456" y="0" font-family="'Verlag-Bold'" font-size="32">K</tspan><tspan x="93.011" y="0" font-family="'Verlag-Bold'" font-size="32">E</tspan><tspan x="112.055" y="0" font-family="'Verlag-Bold'" font-size="32">T</tspan><tspan x="132.371" y="0" font-family="'Verlag-Bold'" font-size="32">P</tspan><tspan x="151.309" y="0" font-family="'Verlag-Bold'" font-size="32" letter-spacing="1">L</tspan><tspan x="170.073" y="0" font-family="'Verlag-Bold'" font-size="32" letter-spacing="-1">A</tspan><tspan x="190.819" y="0" font-family="'Verlag-Bold'" font-size="32">C</tspan><tspan x="213.76" y="0" font-family="'Verlag-Bold'" font-size="32">E</tspan></text>
<rect x="47.937" y="30.823" fill="none" width="187.217" height="10.201"/>
<text transform="matrix(1 0 0 1 47.9373 38.8858)"><tspan x="0" y="0" fill="#999999" font-family="'Verlag-Bold'" font-size="11">B</tspan><tspan x="6.6" y="0" fill="#999999" font-family="'Verlag-Bold'" font-size="11">Y </tspan><tspan x="16.346" y="0" fill="#999999" font-family="'Verlag-Bold'" font-size="11">T</tspan><tspan x="23.458" y="0" fill="#999999" font-family="'Verlag-Bold'" font-size="11">H</tspan><tspan x="31.873" y="0" fill="#999999" font-family="'Verlag-Bold'" font-size="11">E </tspan><tspan x="40.772" y="0" fill="#999999" font-family="'Verlag-Bold'" font-size="11">C</tspan><tspan x="48.784" y="0" fill="#999999" font-family="'Verlag-Bold'" font-size="11">H</tspan><tspan x="57.169" y="0" fill="#999999" font-family="'Verlag-Bold'" font-size="11">I</tspan><tspan x="60.504" y="0" fill="#999999" font-family="'Verlag-Bold'" font-size="11">C</tspan><tspan x="68.811" y="0" fill="#999999" font-family="'Verlag-Bold'" font-size="11">A</tspan><tspan x="76.082" y="0" fill="#999999" font-family="'Verlag-Bold'" font-size="11">G</tspan><tspan x="84.728" y="0" fill="#999999" font-family="'Verlag-Bold'" font-size="11">O </tspan><tspan x="96.454" y="0" fill="#999999" font-family="'Verlag-Bold'" font-size="11">M</tspan><tspan x="106.455" y="0" fill="#999999" font-family="'Verlag-Bold'" font-size="11">A</tspan><tspan x="114.229" y="0" fill="#999999" font-family="'Verlag-Bold'" font-size="11">R</tspan><tspan x="121.164" y="0" fill="#999999" font-family="'Verlag-Bold'" font-size="11">O</tspan><tspan x="130.576" y="0" fill="#999999" font-family="'Verlag-Bold'" font-size="11">O</tspan><tspan x="140.061" y="0" fill="#999999" font-family="'Verlag-Bold'" font-size="11">N</tspan></text>
<g>
	<polygon fill="#C1272D" points="24.863,0.762 16.433,0.762 20.648,4.977 	"/>
	<polygon fill="#C1272D" points="0.992,24.205 0.992,31.248 9.617,39.762 16.66,39.762 	"/>
	<polygon fill="#C1272D" points="0.992,0.848 20.561,20.288 39.999,0.762 39.955,0.762 39.955,0.762 32.838,0.762 20.648,12.953 
		8.458,0.762 0.992,0.762 	"/>
	<polygon fill="#C1272D" points="20.561,35.478 39.999,15.762 39.992,15.762 39.992,8.824 20.492,28.306 0.992,8.824 0.992,16.229 	
		"/>
	<polygon fill="#C1272D" points="24.636,39.762 31.679,39.762 40.061,31.279 39.992,31.248 39.992,24.204 	"/>
</g>
</svg>
