<?xml version="1.0" encoding="utf-8"?>
<!-- Generator: Adobe Illustrator 18.0.0, SVG Export Plug-In . SVG Version: 6.00 Build 0)  -->
<!DOCTYPE svg PUBLIC "-//W3C//DTD SVG 1.1//EN" "http://www.w3.org/Graphics/SVG/1.1/DTD/svg11.dtd">
<svg version="1.1" id="Layer_1" xmlns="http://www.w3.org/2000/svg" xmlns:xlink="http://www.w3.org/1999/xlink" x="0px" y="0px"
	 viewBox="0 0 278.468 41.024" enable-background="new 0 0 278.468 41.024" xml:space="preserve">
<g>
	<rect x="46.937" y="1.5" fill="none" width="236.134" height="28.327"/>
	<path d="M69.016,24.955l-0.32-14.047l-7.391,11.199h-0.48l-7.456-11.231l-0.256,14.079h-3.936l0.992-23.742l0.608-0.064
		L61.176,16.7L71.319,1.149l0.64,0.064l0.992,23.742H69.016z"/>
	<path d="M93.546,24.955l-2.271-5.376h-9.279l-2.272,5.376h-4.128L86.411,1.181h0.576l10.783,23.774H93.546z M86.635,8.573
		l-3.328,7.839h6.656L86.635,8.573z"/>
	<path d="M113.255,24.955l-5.119-8.447c-0.416,0.032-0.8,0.032-1.248,0.032c-0.768,0-1.568-0.032-2.336-0.064v8.479h-4V1.725
		c1.856-0.224,3.808-0.384,6.176-0.384c6.656,0,9.599,3.232,9.599,7.392c0,3.04-1.664,5.503-4.576,6.783l6.144,9.439H113.255z
		 M107.24,4.925c-0.96,0-1.888,0.032-2.688,0.192v7.999c0.736,0.096,1.536,0.128,2.304,0.128c3.488,0,5.248-1.632,5.248-4.32
		C112.104,6.557,110.312,4.925,107.24,4.925z"/>
	<path d="M134.552,24.955l-9.6-11.263v11.263h-4V1.501h4V12.06l9.215-10.559H139L128.76,12.765l10.751,12.191H134.552z"/>
	<path d="M142.507,24.955V1.501h14.303v3.647h-10.303v6.144h9.312v3.52h-9.312v6.496h10.303v3.647H142.507z"/>
	<path d="M171.247,5.149v19.807h-3.999V5.149h-7.456V1.501h18.879v3.647H171.247z"/>
	<path d="M188.204,17.404c-0.769,0-1.568-0.064-2.336-0.096v7.647h-4V1.725c2.08-0.256,4.032-0.384,5.952-0.384
		c6.432,0,9.727,3.52,9.727,7.903C197.546,14.012,194.187,17.404,188.204,17.404z M188.492,5.021c-0.896,0-1.792,0.064-2.624,0.192
		v8.576c0.8,0.064,1.536,0.128,2.24,0.128c3.615,0,5.279-1.888,5.279-4.544C193.387,7.069,191.755,5.021,188.492,5.021z"/>
	<path d="M200.805,24.955V1.501h4v19.807h10.303v3.647H200.805z"/>
	<path d="M234.865,24.955l-2.271-5.376h-9.279l-2.272,5.376h-4.127l10.814-23.774h0.576l10.783,23.774H234.865z M227.954,8.573
		l-3.328,7.839h6.655L227.954,8.573z"/>
	<path d="M252.156,25.339c-7.424,0-12.64-5.119-12.64-12.095c0-6.944,5.279-12.127,12.64-12.127c2.911,0,5.567,0.928,7.551,2.144
		l-1.376,3.392c-1.855-1.056-4.159-1.792-6.239-1.792c-5.151,0-8.287,3.424-8.287,8.384c0,4.928,3.231,8.352,8.383,8.352
		c2.08,0,4.512-0.736,6.399-1.856l1.217,3.392C257.851,24.379,255.067,25.339,252.156,25.339z"/>
	<path d="M263.256,24.955V1.501h14.303v3.647h-10.303v6.144h9.312v3.52h-9.312v6.496h10.303v3.647H263.256z"/>
</g>
<g>
	<rect x="47.937" y="30.823" fill="none" width="187.217" height="10.201"/>
	<path fill="#999999" d="M50.996,38.963c-0.682,0-1.485-0.066-2.179-0.154V30.91c0.594-0.088,1.408-0.154,2.068-0.154
		c2.124,0,3.168,1.034,3.168,2.112c0,0.848-0.396,1.464-1.408,1.838c1.177,0.33,1.628,1.045,1.628,1.937
		C54.274,37.841,53.163,38.963,50.996,38.963z M51.127,31.944c-0.341,0-0.682,0.033-0.957,0.077v2.233
		c0.198,0.021,0.473,0.033,0.814,0.033c1.166,0,1.65-0.518,1.65-1.188S52.14,31.944,51.127,31.944z M51.006,35.266
		c-0.286,0-0.649,0.012-0.836,0.033v2.421c0.275,0.032,0.605,0.055,0.979,0.055c1.1,0,1.65-0.518,1.65-1.276
		C52.8,35.805,52.195,35.266,51.006,35.266z"/>
	<path fill="#999999" d="M58.916,35.497v3.389h-1.375v-3.399l-2.838-4.665h1.573l1.98,3.41l1.958-3.41h1.541L58.916,35.497z"/>
	<path fill="#999999" d="M68.496,32.076v6.811h-1.375v-6.811h-2.563v-1.254h6.491v1.254H68.496z"/>
	<path fill="#999999" d="M77.358,38.886V35.42H73.65v3.466h-1.375v-8.064h1.375v3.366h3.708v-3.366h1.375v8.064H77.358z"/>
	<path fill="#999999" d="M80.69,38.886v-8.064h4.918v1.254h-3.542v2.112h3.202v1.211h-3.202v2.232h3.542v1.255H80.69z"/>
	<path fill="#999999" d="M93.66,39.018c-2.552,0-4.346-1.761-4.346-4.158c0-2.388,1.815-4.17,4.346-4.17
		c1.001,0,1.914,0.319,2.596,0.737l-0.473,1.166c-0.638-0.363-1.43-0.616-2.146-0.616c-1.771,0-2.85,1.177-2.85,2.883
		c0,1.693,1.111,2.871,2.883,2.871c0.715,0,1.551-0.253,2.2-0.639l0.418,1.167C95.618,38.688,94.661,39.018,93.66,39.018z"/>
	<path fill="#999999" d="M102.684,38.886V35.42h-3.708v3.466h-1.375v-8.064h1.375v3.366h3.708v-3.366h1.375v8.064H102.684z"/>
	<path fill="#999999" d="M106.041,38.886v-8.064h1.375v8.064H106.041z"/>
	<path fill="#999999" d="M113.392,39.018c-2.553,0-4.346-1.761-4.346-4.158c0-2.388,1.815-4.17,4.346-4.17
		c1.001,0,1.914,0.319,2.597,0.737l-0.474,1.166c-0.638-0.363-1.43-0.616-2.145-0.616c-1.771,0-2.85,1.177-2.85,2.883
		c0,1.693,1.111,2.871,2.882,2.871c0.716,0,1.552-0.253,2.2-0.639l0.419,1.167C115.35,38.688,114.393,39.018,113.392,39.018z"/>
	<path fill="#999999" d="M122.886,38.886l-0.781-1.849h-3.19l-0.781,1.849h-1.419l3.719-8.175h0.198l3.707,8.175H122.886z
		 M120.51,33.253l-1.145,2.695h2.288L120.51,33.253z"/>
	<path fill="#999999" d="M131.907,34.618v3.521c-0.857,0.561-1.793,0.88-3.003,0.88c-2.3,0-4.279-1.672-4.279-4.158
		c0-2.509,2.013-4.17,4.279-4.17c1.188,0,2.035,0.33,2.86,0.836l-0.627,1.101c-0.649-0.418-1.419-0.672-2.167-0.672
		c-1.838,0-2.872,1.299-2.872,2.905c0,1.716,1.266,2.937,2.86,2.937c0.693,0,1.155-0.12,1.629-0.385v-1.584h-1.882v-1.21H131.907z"
		/>
	<path fill="#999999" d="M137.307,39.018c-2.332,0-4.037-1.771-4.037-4.158c0-2.398,1.782-4.17,4.114-4.17s4.037,1.771,4.037,4.17
		C141.421,37.246,139.639,39.018,137.307,39.018z M137.351,31.922c-1.54,0-2.607,1.254-2.607,2.938c0,1.672,1.067,2.937,2.607,2.937
		c1.529,0,2.597-1.265,2.597-2.937C139.948,33.176,138.88,31.922,137.351,31.922z"/>
	<path fill="#999999" d="M151.982,38.886l-0.109-4.83l-2.542,3.851h-0.165l-2.563-3.861l-0.088,4.841h-1.353l0.341-8.163
		l0.209-0.022l3.575,5.347l3.487-5.347l0.221,0.022l0.341,8.163H151.982z"/>
	<path fill="#999999" d="M160.531,38.886l-0.781-1.849h-3.19l-0.781,1.849h-1.419l3.719-8.175h0.198l3.707,8.175H160.531z
		 M158.155,33.253l-1.145,2.695h2.288L158.155,33.253z"/>
	<path fill="#999999" d="M167.425,38.886l-1.761-2.904c-0.143,0.011-0.274,0.011-0.429,0.011c-0.264,0-0.539-0.011-0.803-0.022
		v2.916h-1.375v-7.987c0.638-0.077,1.309-0.132,2.123-0.132c2.288,0,3.3,1.111,3.3,2.541c0,1.045-0.571,1.893-1.573,2.332
		l2.112,3.246H167.425z M165.357,31.998c-0.33,0-0.649,0.012-0.924,0.066v2.75c0.253,0.033,0.527,0.045,0.792,0.045
		c1.199,0,1.804-0.562,1.804-1.485C167.029,32.56,166.414,31.998,165.357,31.998z"/>
	<path fill="#999999" d="M173.744,39.018c-2.332,0-4.037-1.771-4.037-4.158c0-2.398,1.782-4.17,4.114-4.17s4.037,1.771,4.037,4.17
		C177.858,37.246,176.076,39.018,173.744,39.018z M173.788,31.922c-1.54,0-2.607,1.254-2.607,2.938c0,1.672,1.067,2.937,2.607,2.937
		c1.529,0,2.597-1.265,2.597-2.937C176.384,33.176,175.317,31.922,173.788,31.922z"/>
	<path fill="#999999" d="M183.156,39.018c-2.332,0-4.037-1.771-4.037-4.158c0-2.398,1.782-4.17,4.114-4.17s4.037,1.771,4.037,4.17
		C187.27,37.246,185.488,39.018,183.156,39.018z M183.2,31.922c-1.54,0-2.607,1.254-2.607,2.938c0,1.672,1.067,2.937,2.607,2.937
		c1.529,0,2.597-1.265,2.597-2.937C185.796,33.176,184.729,31.922,183.2,31.922z"/>
	<path fill="#999999" d="M195.302,39.039l-5.05-5.324v5.171h-1.375v-8.175l0.221-0.044l4.983,5.248v-5.094h1.375v8.186
		L195.302,39.039z"/>
</g>
<g>
	<polygon fill="#C1272D" points="24.863,0.762 16.433,0.762 20.648,4.977 	"/>
	<polygon fill="#C1272D" points="0.992,24.205 0.992,31.248 9.617,39.762 16.66,39.762 	"/>
	<polygon fill="#C1272D" points="0.992,0.848 20.561,20.288 39.999,0.762 39.955,0.762 39.955,0.762 32.838,0.762 20.648,12.953 
		8.458,0.762 0.992,0.762 	"/>
	<polygon fill="#C1272D" points="20.561,35.478 39.999,15.762 39.992,15.762 39.992,8.824 20.492,28.306 0.992,8.824 0.992,16.229 	
		"/>
	<polygon fill="#C1272D" points="24.636,39.762 31.679,39.762 40.061,31.279 39.992,31.248 39.992,24.204 	"/>
</g>
</svg>
